<svg xmlns="http://www.w3.org/2000/svg" viewBox="0 0 100 100">
  <!-- 背景圆 -->
  <circle cx="50" cy="50" r="48" fill="#F3F4F6" />
  
  <!-- 花盆 -->
  <path d="M34 75 C34 75, 38 85, 50 85 C62 85, 66 75, 66 75 L66 88 C66 92, 60 96, 50 96 C40 96, 34 92, 34 88 Z" fill="#FF7262" />
  <path d="M34 75 L66 75 C66 75, 62 80, 50 80 C38 80, 34 75, 34 75 Z" fill="#E5533F" />
  
  <!-- 主体仙人掌 -->
  <path d="M50 15 
           C47 15, 45 20, 45 25
           L45 75
           C45 75, 48 78, 50 78
           C52 78, 55 75, 55 75
           L55 45
           C55 45, 60 45, 60 35
           C60 25, 55 30, 55 30
           L55 25
           C55 20, 53 15, 50 15 Z" fill="#30C065" />
  
  <!-- 左侧分支 -->
  <path d="M45 35
           C45 35, 40 35, 40 28
           C40 20, 37 18, 37 18
           C37 18, 30 25, 30 35
           C30 45, 35 50, 45 50
           Z" fill="#30C065" />
  
  <!-- 阴影 -->
  <path d="M50 15 
           C47 15, 45 20, 45 25
           L45 75
           C45 75, 48 78, 50 78
           Z" fill="#21A355" />
  
  <path d="M45 35
           C45 35, 40 35, 40 28
           C40 20, 37 18, 37 18
           C37 18, 30 25, 30 35
           C30 40, 31 43, 33 46
           Z" fill="#21A355" />
  
  <!-- 高光 -->
  <ellipse cx="46" cy="37" rx="1.5" ry="3" fill="#4DDC84" />
  <ellipse cx="53" cy="48" rx="1.5" ry="4" fill="#4DDC84" />
  <ellipse cx="35" cy="32" rx="1" ry="2" fill="#4DDC84" />
  
  <!-- 小刺 -->
  <circle cx="38" cy="23" r="1" fill="white" />
  <circle cx="42" cy="40" r="1" fill="white" />
  <circle cx="43" cy="58" r="1" fill="white" />
  <circle cx="59" cy="35" r="1" fill="white" />
  <circle cx="53" cy="28" r="1" fill="white" />
  <circle cx="52" cy="65" r="1" fill="white" />
  
  <!-- 花朵 -->
  <circle cx="37" cy="18" r="3.5" fill="#FF96B7" />
  <circle cx="37" cy="18" r="2" fill="#FFD4E3" />
</svg>